<?xml version="1.0" standalone="no"?><!DOCTYPE svg PUBLIC "-//W3C//DTD SVG 1.1//EN" "http://www.w3.org/Graphics/SVG/1.1/DTD/svg11.dtd"><svg t="1766833694531" class="icon" viewBox="0 0 1024 1024" version="1.1" xmlns="http://www.w3.org/2000/svg" p-id="10135" xmlns:xlink="http://www.w3.org/1999/xlink" width="200" height="200"><path d="M797.994667 557.994667c-48 0-88-40-88-88S749.994667 384 797.994667 384a85.354667 85.354667 0 0 1 86.016 85.994667c0 48-38.016 88-86.016 88z" fill="#FCBE37" p-id="10136"></path><path d="M797.994667 364.010667c-8 0-11.989333-6.016-11.989334-12.010667v-40c0-5.994667 3.989333-11.989333 11.989334-11.989333 6.016 0 12.010667 5.973333 12.010666 11.989333V352c0 5.994667-6.016 12.010667-12.010666 12.010667z m84.010666 33.984c-4.010667 0-5.994667 0-8-3.989334a9.365333 9.365333 0 0 1 0-16l27.989334-28.010666c4.010667-3.989333 12.010667-3.989333 16 0a9.365333 9.365333 0 0 1 0 16L890.026667 394.026667c-2.005333 3.989333-4.010667 3.989333-8 3.989333z m74.005334 84.010666h-40c-6.016 0-12.010667-4.010667-12.010667-12.010666 0-5.994667 5.994667-11.989333 12.010667-11.989334h40c8 0 11.989333 5.994667 11.989333 11.989334 0 8-3.989333 12.010667-11.989333 12.010666z m-46.016 114.005334c-3.989333 0-5.994667-2.005333-8-4.010667l-27.989334-27.989333c-5.994667-4.010667-5.994667-12.010667 0-18.005334 3.989333-4.010667 11.989333-4.010667 16 0l27.989334 27.989334c6.016 6.016 6.016 12.010667 0 18.005333-1.984 2.005333-5.994667 4.010667-8 4.010667z m-112 45.994666c-8 0-11.989333-5.994667-11.989334-12.010666v-40c0-5.994667 3.989333-11.989333 11.989334-11.989334 6.016 0 12.010667 5.994667 12.010666 11.989334v40c0 6.016-6.016 12.010667-12.010666 12.010666z m-112-45.994666a15.274667 15.274667 0 0 1-9.984-4.010667c-4.010667-5.994667-4.010667-11.989333 0-18.005333L704 546.005333c5.994667-4.010667 12.010667-4.010667 18.005333 0 3.989333 5.994667 3.989333 13.994667 0 18.005334L693.973333 592c-1.984 2.005333-5.994667 4.010667-8 4.010667z m-8-114.005334h-40c-5.994667 0-11.989333-4.010667-11.989334-12.010666 0-5.994667 5.994667-11.989333 11.989334-11.989334h40c6.016 0 12.010667 5.994667 12.010666 11.989334 0 8-6.016 12.010667-12.010666 12.010666z m36.010666-84.010666c-4.010667 0-8 0-10.005333-3.989334l-28.010667-28.010666c-3.989333-3.989333-3.989333-11.989333 0-16 6.016-3.989333 12.010667-3.989333 18.005334 0l28.010666 28.010666c3.989333 3.989333 3.989333 11.989333 0 16-2.005333 3.989333-6.016 3.989333-8 3.989334z" fill="#FC9A2D" p-id="10137"></path><path d="M163.989333 589.994667H160c-5.994667-1.984-10.005333-8-8-13.994667 51.989333-171.989333 139.989333-283.989333 176-323.989333 3.989333-4.010667 11.989333-6.016 18.005333-2.005334 1.984 3.989333 9.984 13.994667 16 24h5.994667c5.994667 3.989333 8 10.005333 5.994667 16-18.005333 40-74.005333 160-88 312 0 5.994667-5.994667 10.005333-11.989334 10.005334-8 0-12.010667-6.016-12.010666-14.016-125.994667 284.010667-75.989333 56-85.994667-16-2.005333 6.016-8 8-12.010667 8z" fill="#A44E3E" p-id="10138"></path><path d="M188.010667 480c1.984-8 5.973333-13.994667 7.978666-21.994667 30.016 18.005333 70.016 40 102.016 59.989334-2.005333 8-2.005333 16-4.010666 24-32-17.984-75.989333-43.989333-106.005334-61.994667z m32-67.989333c3.989333-6.016 7.978667-14.016 11.989333-20.010667 24 13.994667 58.005333 34.005333 84.010667 50.005333l-6.016 24c-27.989333-16-64-37.994667-90.005334-53.994666z m37.973333-64c4.010667-8 8.021333-14.016 12.010667-20.010667l69.994666 42.005333c-1.984 5.994667-3.989333 13.994667-7.978666 21.994667-24.021333-13.994667-52.010667-29.994667-74.026667-43.989333z" fill="#944638" p-id="10139"></path><path d="M680 274.005333c-2.005333 0-5.994667-2.005333-8-4.010666q-100.010667-69.994667-178.005333-61.994667c36.010667 8 76.010667 26.005333 100.010666 61.994667 29.994667 46.016 29.994667 110.016-2.005333 190.016-2.005333 3.989333-5.994667 8-12.010667 8-5.973333 0-9.984-4.010667-9.984-10.026667-2.005333 0-20.010667-73.984-56-125.973333 8 17.984 11.989333 40 9.984 64-5.973333 51.989333-43.989333 99.989333-113.984 144-2.005333 1.984-4.010667 1.984-6.016 1.984-1.984 0-5.973333 0-8-1.984-3.989333-4.010667-5.973333-10.026667-3.989333-14.016 2.005333-1.984 69.994667-168 0-227.989334-5.994667-5.994667-5.994667-12.010667-2.005333-18.005333 66.005333 10.005333-11.989333-112-40-21.994667 0 8-5.994667 11.989333-11.989334 13.994667-90.005333 2.005333-156.010667 157.994667-156.010666 160-2.005333 4.010667-5.994667 8-10.005334 8H170.026667c-6.016 0-10.005333-3.989333-10.005334-10.005333-20.010667-81.984-12.010667-144 24-185.984 13.994667-16 32-28.010667 50.005334-34.005334q-64 10.005333-128 50.005334c-2.005333 1.984-4.010667 1.984-8 1.984-2.005333 0-4.010667-1.984-6.016-3.989334a9.6 9.6 0 0 1-3.989334-12.010666c34.005333-77.994667 75.989333-123.989333 128-136 43.989333-10.005333 85.994667 5.994667 120 26.005333-50.005333-60.010667-170.005333-82.005333-172.010666-82.005333-3.989333 0-8-3.989333-9.984-10.005334 0-5.973333 1.984-9.984 8-11.989333 75.989333-35.989333 139.989333-42.005333 185.984-16 52.010667 27.989333 72 88 80 130.005333 32-22.016 82.005333-46.016 134.016-34.005333 56 11.989333 97.984 61.994667 128 144 1.984 5.994667 1.984 12.010667-4.010667 13.994667-2.005333 2.005333-3.989333 4.010667-5.994667 4.010666z" fill="#00A23E" p-id="10140"></path><path d="M1004.010667 1024H19.989333c-8 0-11.989333-5.994667-11.989333-11.989333V572.010667c0-6.016 4.010667-12.010667 10.005333-12.010667 330.005333-19.989333 571.989333 196.010667 985.984 196.010667 8.021333 0 12.010667 5.973333 12.010667 11.989333v244.010667c0 5.973333-4.010667 11.989333-12.010667 11.989333z" fill="#FFD686" p-id="10141"></path><path d="M364.010667 797.994667C292.010667 768 156.010667 730.026667 8 794.026667v25.984c141.994667-65.984 274.005333-32 346.005333 0 35.989333 14.016 69.994667 28.010667 105.984 28.010666 28.010667 0 58.026667-8 92.010667-32 60.010667-44.010667 108.010667-24 168 2.005334 42.005333 17.984 92.010667 40 154.005333 40 32 0 91.989333-6.016 141.994667-20.010667v-24c-114.005333 42.005333-221.994667 10.005333-285.994667-18.005333-62.016-25.984-120-51.989333-192 0-64 48-112 28.010667-174.016 2.005333z m0 100.010666c-72-30.016-208-68.010667-356.010667-4.010666v26.005333c141.994667-66.005333 274.005333-32 346.005333 0 35.989333 13.994667 69.994667 27.989333 105.984 27.989333 28.010667 0 58.026667-8 92.010667-32 60.010667-43.989333 108.010667-24 168 2.005334 42.005333 20.010667 92.010667 40 154.005333 40 32 0 91.989333-5.994667 141.994667-19.989334v-24c-114.005333 41.984-221.994667 9.984-285.994667-18.005333-62.016-26.005333-120-52.010667-192 0-64 48-112 27.989333-174.016 2.005333z" fill="#E7A661" p-id="10142"></path><path d="M384 301.994667c-34.005333 0-64-27.989333-64-64 0-35.989333 29.994667-64 64-64 36.010667 0 66.005333 28.010667 66.005333 64 0 36.010667-30.016 64-66.005333 64z" fill="#008839" p-id="10143"></path></svg>