<?xml version="1.0" standalone="no"?><!DOCTYPE svg PUBLIC "-//W3C//DTD SVG 1.1//EN" "http://www.w3.org/Graphics/SVG/1.1/DTD/svg11.dtd"><svg t="1765699634967" class="icon" viewBox="0 0 1024 1024" version="1.1" xmlns="http://www.w3.org/2000/svg" p-id="6625" xmlns:xlink="http://www.w3.org/1999/xlink" width="200" height="200"><path d="M548.352 947.996444a436.679111 436.679111 0 0 0 358.4-187.733333 29.127111 29.127111 0 0 0 1.649778-30.549333 27.932444 27.932444 0 0 0-26.510222-15.189334l-6.997334 0.341334h-6.542222a377.799111 377.799111 0 0 1-310.556444-593.351111 29.127111 29.127111 0 0 0 1.649777-30.549334 28.444444 28.444444 0 0 0-26.510222-15.189333 436.110222 436.110222 0 0 0 15.530667 871.879111z m274.716444-176.753777A377.856 377.856 0 1 1 479.004444 140.515556a436.110222 436.110222 0 0 0 344.064 630.727111z" p-id="6626" fill="#ffffff"></path></svg>