<?xml version="1.0" standalone="no"?><!DOCTYPE svg PUBLIC "-//W3C//DTD SVG 1.1//EN" "http://www.w3.org/Graphics/SVG/1.1/DTD/svg11.dtd"><svg t="1765699464765" class="icon" viewBox="0 0 1024 1024" version="1.1" xmlns="http://www.w3.org/2000/svg" p-id="5553" xmlns:xlink="http://www.w3.org/1999/xlink" width="200" height="200"><path d="M469.333333 85.333333c0-25.6 17.066667-42.666667 51.2-42.666666 25.6 0 42.666667 17.066667 42.666667 42.666666v59.733334c0 25.6-17.066667 42.666667-42.666667 42.666666s-51.2-17.066667-51.2-42.666666V85.333333zM776.533333 179.2c17.066667-17.066667 42.666667-17.066667 59.733334 0 17.066667 17.066667 17.066667 42.666667 0 59.733333l-34.133334 42.666667c-17.066667 17.066667-42.666667 17.066667-59.733333 0-17.066667-17.066667-17.066667-42.666667 0-59.733333l34.133333-42.666667zM981.333333 512c0-25.6-17.066667-42.666667-42.666666-42.666667h-59.733334c-25.6-8.533333-42.666667 17.066667-42.666666 42.666667s17.066667 42.666667 42.666666 42.666667h59.733334c25.6 0 42.666667-25.6 42.666666-42.666667zM844.8 776.533333c17.066667 17.066667 17.066667 42.666667 0 59.733334-17.066667 17.066667-42.666667 17.066667-59.733333 0l-42.666667-34.133334c-17.066667-17.066667-17.066667-42.666667 0-59.733333s42.666667-17.066667 59.733333 0l42.666667 34.133333zM512 981.333333c25.6 0 42.666667-17.066667 42.666667-42.666666v-59.733334c8.533333-25.6-17.066667-42.666667-42.666667-42.666666s-42.666667 17.066667-42.666667 42.666666v59.733334c0 25.6 25.6 42.666667 42.666667 42.666666zM247.466667 844.8c-17.066667 17.066667-42.666667 17.066667-59.733334 0-17.066667-17.066667-17.066667-42.666667 0-59.733333l42.666667-42.666667c17.066667-17.066667 42.666667-17.066667 59.733333 0 17.066667 17.066667 17.066667 42.666667 0 59.733333l-42.666666 42.666667zM42.666667 512c0 25.6 17.066667 42.666667 42.666666 42.666667h59.733334c25.6 8.533333 42.666667-17.066667 42.666666-42.666667s-17.066667-42.666667-42.666666-42.666667H85.333333c-25.6 0-42.666667 25.6-42.666666 42.666667zM179.2 247.466667c-17.066667-17.066667-17.066667-42.666667 0-59.733334 17.066667-17.066667 42.666667-17.066667 59.733333 0l42.666667 42.666667c17.066667 17.066667 17.066667 42.666667 0 59.733333-17.066667 17.066667-42.666667 17.066667-59.733333 0l-42.666667-42.666666zM512 256C366.933333 256 256 366.933333 256 512s110.933333 256 256 256 256-110.933333 256-256-110.933333-256-256-256z m0 435.2c-102.4 0-179.2-76.8-179.2-179.2S409.6 332.8 512 332.8s179.2 76.8 179.2 179.2S614.4 691.2 512 691.2z" p-id="5554" fill="#2c2c2c"></path></svg>